<svg
      viewBox="0 0 12.5 12.5"
    >
      <path
        d="m5.5898 0.099609c-0.13316 0-0.24611 0.096983-0.26758 0.22852l-0.25977 1.5898c-0.32611 0.093758-0.63873 0.22334-0.93359 0.38477l-1.3125-0.9375c-0.10843-0.077452-0.25726-0.066414-0.35156 0.027344l-1.0547 1.0566c-0.093215 0.093215-0.10707 0.23977-0.03125 0.34766l0.92383 1.3223c-0.16442 0.29758-0.29524 0.61171-0.39062 0.93945l-1.584 0.26562c-0.13099 0.021741-0.22852 0.13496-0.22852 0.26758v1.4941c0 0.1318 0.09498 0.24448 0.22461 0.26758l1.584 0.28125c0.094845 0.32693 0.22567 0.64106 0.39062 0.93945l-0.93359 1.3086c-0.07718 0.10789-0.066413 0.25531 0.027344 0.34961l1.0566 1.0586c0.093214 0.09321 0.24172 0.10511 0.34961 0.029296l1.3223-0.92578c0.29704 0.16333 0.6122 0.29269 0.9375 0.38672l0.26367 1.5918c0.021468 0.13072 0.13469 0.22656 0.26758 0.22656h1.4961c0.1318 0 0.24475-0.09303 0.26758-0.22266l0.2832-1.6016c0.32584-0.09593 0.63759-0.22703 0.93164-0.39062l1.334 0.93555c0.10816 0.07636 0.25417 0.063904 0.34766-0.029296l1.0566-1.0586c0.09402-0.09431 0.10729-0.24145 0.029297-0.34961l-0.95117-1.3203c0.16115-0.2935 0.2896-0.60347 0.38281-0.92578l1.6074-0.2832c0.13018-0.022829 0.22461-0.13577 0.22461-0.26758v-1.4941c2.73e-4 -0.13316-0.09502-0.24806-0.22656-0.26953l-1.6074-0.26172c-0.094029-0.32231-0.22193-0.63255-0.38281-0.92578l0.9375-1.3359c0.07583-0.10789 0.06195-0.25417-0.03125-0.34766l-1.0566-1.0566c-0.094298-0.09403-0.24145-0.10729-0.34961-0.029297l-1.3164 0.94727c-0.29595-0.1636-0.60938-0.29437-0.93359-0.38867l-0.2793-1.5996c-0.022828-0.1299-0.1355-0.22461-0.26758-0.22461h-1.4961zm0.75977 1.9824c2.3567 6.78e-5 4.2675 1.9109 4.2676 4.2676-6.8e-5 2.3567-1.9109 4.2675-4.2676 4.2676-2.357 2.68e-4 -4.2675-1.9106-4.2676-4.2676 6.79e-5 -2.357 1.9106-4.2678 4.2676-4.2676zm0.085938 1.3477c-0.10405 0.00296-0.21384 0.015178-0.33008 0.037109l0.26953 0.39844c-0.42049-0.16347-0.84123-0.088121-1.2617-0.09375l0.59375 0.37109-0.019531 0.10156-0.47266-0.15625c-0.38032 0.056769-0.7979 0.23737-1.2715 0.51953l0.44531 0.25977c-0.48806 0.047105-0.86622 0.26769-1.2324 0.50977l0.47266 0.091797c-0.3583 0.32064-0.56881 0.69128-0.70508 1.0859l0.58398 0.056641-0.44531 0.59375c0.39717 0.16071 0.78248 0.31484 1.1719 0.39453 0.42738 0.098653 0.54866 0.09033 0.99023 0.0039062 0.1571-0.041641 0.26553-0.10805 0.40039-0.19727-0.14441 0.14045-0.088576 0.11013-0.31055 0.22656 0.63146 0.19782 1.2631-0.10494 1.8945-0.70703 0.15373-0.19597 0.31452-0.37866 0.49414-0.52734 0.062561-0.33836-0.22218-0.37596-0.31445-0.7168 0.52485 0.085931 0.71134 0.12938 0.92969 0.39648 0.28293-0.067428 0.6126-0.048692 1.0137 0.099609-0.124-1.2749-0.67782-2.0348-1.418-2.5703l0.13086 0.65625c-0.43162-0.44081-0.88102-0.85477-1.6094-0.83398zm1.6621 1.4824c0.23491 0.24633 0.28861 0.31379 0.54883 0.43359-0.20094-0.076661-0.21652-0.048997-0.40039-0.18164l0.027344 0.38672-0.17578-0.63867zm-2.0117 0.27148c0.32893 0.20254 0.42273 0.16572 0.71484 0.25781-0.26036-0.019052-0.13868-0.0040153-0.46094-0.076172l0.23242 0.30859c-0.018846-0.016211-0.028208-0.024043-0.035156-0.029297 0.061998 0.067535-0.036729-0.027764 0 0-0.042332-0.046106-0.16151-0.16846-0.45117-0.46094zm-1.1484 0.37891c0.10261 5.126e-4 0.14838 0.014339 0.26562 0.011719-0.18974 0.025047-0.33765 0.013024-0.56641 0.083984l0.56641 0.41992c-0.29026-0.16242-0.58083-0.372-0.87109-0.45312 0.34314-0.051032 0.50286-0.063012 0.60547-0.0625zm2.5957 0.16797c-0.031115-0.00218-0.058016-0.0016169-0.078125 0.0019531-0.092263 0.016364 0.42064 0.5752 0.3457 0.63477-0.24815 0.19725-0.29346 0.27548-0.49609 0.5332-0.11045 0.29147 0.49732 0.63449 1.2656 0.69141 0.47888 0.01384 0.49209 0.027847 0.80859-0.044922-0.047304-0.1993 0.037947-0.25832 0.23438-0.33789-0.22595-0.27369-0.30916-0.62028-0.39258-1.0117-0.22672-0.096516-0.39511-0.10104-0.58203-0.10156-0.11827-3.24e-4 -0.20658 0.017317-0.33398 0.044922-0.10726-0.2434-0.55367-0.39484-0.77148-0.41016zm1.3535 0.65039c0.078402-8.126e-4 0.15259 0.1132 0.17578 0.16797-0.11177 0.11872-0.19953 0.050367-0.30664 0.046875-0.034511-0.1646 0.075785-0.21431 0.13086-0.21484zm-2.4785 0.083984-0.20703 0.25977c0.17906-0.045128 0.35555-0.11203 0.51953-0.24414-0.22855 0.22266 0.057929 0.1216-0.71875 0.33984l0.40625-0.35547zm-1.7402 0.16602-0.32227 0.19141c0.24017 0.00859 0.48054-0.0033444 0.7207-0.083984-0.34332 0.14995 0.046763 0.13641-1 0.12109l0.60156-0.22852zm2.5488 0.37695c-0.54854 0.42376-1.1392 0.95178-1.9766 0.625-0.48922 0.15732-1.1391 0.030219-1.8926-0.29297 0.050181 0.95312 0.40689 1.345 1.0137 1.4453l-0.12891-0.67773 2.8789-0.12891c0.16141 0.51255 0.69823 0.57425 1.1289 0.38672-0.11918-0.28617-0.25886-0.56879-0.32812-0.86328-0.29975-0.066244-0.53524-0.22472-0.69531-0.49414zm2.4238 0.24219c-0.21447 0.052295-0.2639 0.16335-0.21484 0.28711l0.31641-0.087891-0.10156-0.19922zm-2.5859 0.78125-0.43359 0.021484-0.0097657 0.3418 0.67969-0.050781c-0.079559-0.087586-0.19717-0.20695-0.23633-0.3125zm-2.166 0.10547-0.58008 0.023437 0.072266 0.39648 0.65625-0.0078125-0.14844-0.41211z"
        fill="#4F0080"
      />
    </svg>